<svg width="217" height="71" viewBox="0 0 217 71" fill="none" xmlns="http://www.w3.org/2000/svg">
<g clip-path="url(#clip0_405_8)">
<path d="M207.84 40.7117L199.74 56.6444V64.141H194.049V56.7107L185.916 40.7114H192.309L196.895 50.2503L201.48 40.7114L207.84 40.7117ZM177.502 47.5905C176.276 46.3286 174.725 45.6986 172.85 45.6986C170.976 45.6986 169.426 46.3286 168.198 47.5905C166.97 48.8502 166.357 50.4631 166.357 52.427C166.357 54.3898 166.97 56.0019 168.198 57.2638C169.426 58.5234 170.975 59.1534 172.85 59.1534C174.725 59.1534 176.276 58.5234 177.502 57.2638C178.73 56.0019 179.344 54.3898 179.344 52.427C179.344 50.4631 178.73 48.8502 177.502 47.5905ZM164.132 43.7744C166.486 41.4426 169.392 40.2773 172.851 40.2773C176.309 40.2773 179.216 41.4426 181.57 43.7744C183.923 46.1052 185.1 48.9897 185.1 52.427C185.1 55.8633 183.923 58.7468 181.57 61.0786C179.216 63.4104 176.309 64.5757 172.851 64.5757C169.392 64.5757 166.486 63.4104 164.132 61.0786C161.778 58.7468 160.601 55.8633 160.601 52.427C160.601 48.9897 161.778 46.1052 164.132 43.7744ZM151.551 48.6112C151.551 46.9596 150.58 46.1342 148.64 46.1342H144.522V51.0212H148.64C150.58 51.0212 151.551 50.2176 151.551 48.6112ZM151.819 64.1413L146.296 56.0072H144.522V64.1413H138.833V40.712H149.275C151.752 40.712 153.71 41.4093 155.149 42.8045C156.589 44.1984 157.308 46.1118 157.308 48.5445C157.308 52.136 155.746 54.4456 152.622 55.4725L158.781 64.141L151.819 64.1413ZM135.005 40.712V46.1342H128.611V64.1413H122.921V46.1342H116.562V40.712H135.005ZM104.232 49.3808C107.758 50.1394 110.251 51.0377 111.712 52.0752C113.174 53.113 113.905 54.769 113.905 57.0463C113.905 58.1386 113.711 59.1269 113.32 60.0077C112.929 60.8889 112.427 61.6089 111.813 62.1669C111.2 62.7252 110.486 63.1929 109.671 63.573C108.857 63.9516 108.053 64.2136 107.261 64.3597C106.469 64.5034 105.672 64.5763 104.869 64.5763C103.15 64.5763 101.633 64.3423 100.317 63.8737C98.9992 63.4057 97.952 62.7692 97.1706 61.9656C96.3895 61.163 95.7863 60.3047 95.3635 59.389C94.9385 58.4739 94.6597 57.4812 94.5266 56.4101H100.283C100.572 57.4136 101.048 58.139 101.706 58.5854C102.364 59.0319 103.408 59.255 104.835 59.255C107.067 59.255 108.182 58.5963 108.182 57.2806C108.182 56.7223 107.92 56.3266 107.396 56.0926C106.871 55.8586 105.794 55.5732 104.165 55.2395C103.987 55.2158 103.848 55.194 103.748 55.1719C103.647 55.1491 103.513 55.1161 103.347 55.0722C103.179 55.027 103.017 54.9927 102.861 54.9712C101.745 54.7482 100.791 54.4902 99.9987 54.2007C99.2067 53.911 98.4097 53.5044 97.6055 52.9794C96.802 52.4547 96.1891 51.7686 95.7651 50.9212C95.3401 50.0734 95.1289 49.0686 95.1289 47.9077C95.1289 46.2797 95.5806 44.8674 96.4851 43.6744C97.389 42.4811 98.51 41.6158 99.8485 41.0806C101.186 40.545 102.627 40.278 104.166 40.278C107.245 40.278 109.55 41.0033 111.077 42.4533C112.606 43.9031 113.482 45.7659 113.706 48.0432H107.948C107.748 47.2618 107.373 46.6589 106.827 46.2361C106.281 45.8111 105.393 45.5986 104.165 45.5986C103.005 45.5986 102.163 45.7949 101.638 46.1859C101.115 46.5763 100.852 47.0605 100.852 47.641C100.852 48.1099 101.059 48.4445 101.471 48.6455C101.885 48.8461 102.626 49.0586 103.697 49.2817C103.809 49.3032 103.904 49.3206 103.982 49.3325C104.059 49.3431 104.143 49.3593 104.232 49.382V49.3808Z" fill="#2B2A29"/>
<path d="M200.242 13.067C199.016 14.3267 198.402 15.9397 198.402 17.9038C198.402 19.8664 199.016 21.4785 200.242 22.7403C201.47 24 203.021 24.63 204.896 24.63C206.769 24.63 208.32 24 209.548 22.7403C210.776 21.4785 211.388 19.8664 211.388 17.9038C211.388 15.9397 210.776 14.3267 209.548 13.067C208.32 11.8052 206.769 11.1752 204.896 11.1752C203.021 11.1752 201.47 11.8052 200.242 13.067ZM217.145 17.9038C217.145 21.1607 216.097 23.9047 213.999 26.1367L217.145 30.2874L212.828 33.5667L209.514 29.2166C208.042 29.7746 206.502 30.0522 204.895 30.0522C201.437 30.0522 198.529 28.8869 196.176 26.5552C193.822 24.2234 192.644 21.3398 192.644 17.9038C192.644 14.4663 193.822 11.5818 196.176 9.25126C198.529 6.91917 201.437 5.75391 204.895 5.75391C208.354 5.75391 211.26 6.91917 213.615 9.25126C215.968 11.5818 217.145 14.4663 217.145 17.9038ZM176.901 19.3417H181.921L179.412 12.0457L176.901 19.3417H176.901ZM185.47 29.6179L183.797 24.7652H175.027L173.353 29.6179H167.329L175.83 6.18854H182.992L191.495 29.6179H185.47H185.47ZM154.196 24.1957H164.672V29.6179H146.999V24.1957L157.409 11.6114H147.535V6.18885H164.572L164.605 11.6114L154.196 24.1957ZM129.75 19.3417H134.77L132.26 12.0457L129.75 19.3417H129.75ZM138.318 29.6179L136.645 24.7652H127.876L126.202 29.6179H120.178L128.679 6.18854H135.841L144.343 29.6179H138.318H138.318ZM102.124 13.0674C100.898 14.327 100.284 15.94 100.284 17.9042C100.284 19.8667 100.898 21.4788 102.124 22.7406C103.352 24.0003 104.903 24.6303 106.778 24.6303C108.651 24.6303 110.202 24.0003 111.43 22.7406C112.658 21.4788 113.27 19.8667 113.27 17.9042C113.27 15.94 112.658 14.327 111.43 13.0674C110.202 11.8055 108.651 11.1755 106.778 11.1755C104.903 11.1755 103.352 11.8055 102.124 13.0674ZM119.027 17.9042C119.027 21.161 117.979 23.905 115.881 26.137L119.027 30.2878L114.71 33.567L111.396 29.2169C109.924 29.7749 108.384 30.0525 106.777 30.0525C103.319 30.0525 100.411 28.8873 98.0581 26.5555C95.7039 24.2237 94.5265 21.3401 94.5265 17.9042C94.5265 14.4666 95.7039 11.5821 98.0581 9.25157C100.411 6.91948 103.319 5.75422 106.777 5.75422C110.235 5.75422 113.142 6.91948 115.497 9.25157C117.85 11.5821 119.027 14.4666 119.027 17.9042Z" fill="#2B2A29"/>
<path fill-rule="evenodd" clip-rule="evenodd" d="M35.2755 0C54.7591 0 70.5544 15.7931 70.5544 35.2767C70.5544 40.3992 69.4617 45.2656 67.4976 49.6581L82.099 70.5535H53.597L43.3071 55.8281L48.3031 68.0687C44.272 69.6717 39.8774 70.555 35.2755 70.555C15.7953 70.555 0 54.761 0 35.2774C0 15.7937 15.7953 0.000623137 35.2755 0.000623137V0ZM35.2767 19.5896C39.6188 19.5896 43.5476 21.3537 46.3879 24.203L42.04 28.5908C45.3214 30.7786 47.484 34.5146 47.484 38.7554C47.484 45.3912 42.188 50.7932 35.5911 50.9592L35.2767 50.9639H35.2755C30.9344 50.9627 27.0055 49.2001 24.1665 46.3505L28.5132 41.9639C25.2305 39.7761 23.0679 36.0388 23.0679 31.7993C23.0679 25.0564 28.5347 19.5908 35.2767 19.5908L35.2755 19.5896H35.2767Z" fill="url(#paint0_linear_405_8)"/>
</g>
<defs>
<linearGradient id="paint0_linear_405_8" x1="65.7111" y1="63.9735" x2="16.3879" y2="6.58127" gradientUnits="userSpaceOnUse">
<stop stop-color="#0078BF"/>
<stop offset="1" stop-color="#00A0E3"/>
</linearGradient>
<clipPath id="clip0_405_8">
<rect width="217" height="70.6894" fill="white"/>
</clipPath>
</defs>
</svg>
