<?xml version="1.0" encoding="UTF-8" standalone="no"?>
<svg
   width="379.005"
   height="16.924999"
   viewBox="0 0 379.005 16.925"
   fill="none"
   version="1.1"
   id="svg2"
   sodipodi:docname="answers_whatsapp-web.js.svg"
   inkscape:version="1.3.1 (9b9bdc1480, 2023-11-25, custom)"
   xmlns:inkscape="http://www.inkscape.org/namespaces/inkscape"
   xmlns:sodipodi="http://sodipodi.sourceforge.net/DTD/sodipodi-0.dtd"
   xmlns="http://www.w3.org/2000/svg"
   xmlns:svg="http://www.w3.org/2000/svg">
  <defs
     id="defs2" />
  <sodipodi:namedview
     id="namedview2"
     pagecolor="#505050"
     bordercolor="#eeeeee"
     borderopacity="1"
     inkscape:showpageshadow="0"
     inkscape:pageopacity="0"
     inkscape:pagecheckerboard="0"
     inkscape:deskcolor="#505050"
     showgrid="false"
     showguides="true"
     inkscape:zoom="1"
     inkscape:cx="142"
     inkscape:cy="-88"
     inkscape:window-width="1360"
     inkscape:window-height="704"
     inkscape:window-x="0"
     inkscape:window-y="0"
     inkscape:window-maximized="1"
     inkscape:current-layer="svg2">
    <sodipodi:guide
       position="0,9.0382804"
       orientation="1,0"
       id="guide2"
       inkscape:locked="false" />
    <sodipodi:guide
       position="0.375,16.925"
       orientation="0,-1"
       id="guide3"
       inkscape:locked="false" />
  </sodipodi:namedview>
  <path
     d="M 223.99414,208 V 48 a 16.01582,16.01582 0 0 0 -16,-16 h -160 a 16.01583,16.01583 0 0 0 -16,16 v 160 a 16.01583,16.01583 0 0 0 16,16 h 160 a 16.01582,16.01582 0 0 0 16,-16 z m -56.39062,-80.40625 a 7.99708,7.99708 0 0 1 -11.3125,0 L 135.99414,107.30762 V 168 a 8,8 0 1 1 -16,0 v -60.6875 l -20.28125,20.28125 a 7.99915,7.99915 0 0 1 -11.3125,-11.3125 l 33.92773,-33.92773 a 8.02367,8.02367 0 0 1 11.332,0 l 33.94336,33.92773 a 7.99708,7.99708 0 0 1 4e-5,11.3125 z"
     id="path1" />
  <text
     xml:space="preserve"
     style="font-size:17px;fill:#ff9e80;fill-opacity:1;stroke-width:0.79748;stroke-dasharray:none"
     x="-1.8014526"
     y="12.915869"
     id="text3"><tspan
       sodipodi:role="line"
       id="tspan3"
       x="-1.8014526"
       y="12.915869"
       style="font-size:17px;fill:#ff9e80;fill-opacity:1">&lt;response_from_user_for_whatsapp-web.js&gt;</tspan></text>
</svg>
